# xmcd CD database file
#
# Track frame offsets:
#	150
#	14505
#	31515
#	46905
#	58765
#	76967
#	90700
#	105700
#	117975
#	134892
#	148497
#	161067
#	174850
#	196402
#	218222
#	233095
#	246842
#	258977
#	273385
#	283832
#	298182
#
# Disc length: 4141 seconds
#
# Revision: 0
# Processed by: cddbd v1.5.2PL0 Copyright (c) Steve Scherf et al.
# Submitted via: CDex 1.51
#
DISCID=40102b15
DTITLE=Dwight Yoakam - Guitars, Cadillacs, Etc., Etc
DYEAR=2006
DGENRE=Country
TTITLE0=This Drinkin' Will Kill Me
TTITLE1=It Won't Hurt
TTITLE2=I'll Be Gone
TTITLE3=Floyd County
TTITLE4=You're the One
TTITLE5=Twenty Years
TTITLE6=Please Daddy
TTITLE7=Miner's Prayer
TTITLE8=I Sang Dixie
TTITLE9=Bury Me
TTITLE10=Honky Tonk Man
TTITLE11=It Won't Hurt
TTITLE12=Fast As You
TTITLE13=I'll Be Gone
TTITLE14=South of Cincinnati
TTITLE15=Bury Me (duet with Maria McKee)
TTITLE16=Guitars, Cadillacs
TTITLE17=Twenty Years
TTITLE18=Ring of Fire
TTITLE19=Miner's Prayer
TTITLE20=Heartaches by the Number
EXTD=YEAR: 2006
EXTT0=
EXTT1=
EXTT2=
EXTT3=
EXTT4=
EXTT5=
EXTT6=
EXTT7=
EXTT8=
EXTT9=
EXTT10=
EXTT11=
EXTT12=
EXTT13=
EXTT14=
EXTT15=
EXTT16=
EXTT17=
EXTT18=
EXTT19=
EXTT20=
PLAYORDER=
